<svg width="54" height="64" viewBox="0 0 54 64" fill="none" xmlns="http://www.w3.org/2000/svg">
<g clip-path="url(#clip0_5_2)">
<path d="M4.17762 34.3813L7.88906 23.7806C9.30973 19.719 13.1414 17 17.4445 17H36.5555C40.8586 17 44.6871 19.719 46.1109 23.7806L49.8234 34.3813C52.2703 35.3938 54 37.809 54 40.625V60.875C54 62.7418 52.4918 64.25 50.625 64.25H47.25C45.3832 64.25 43.875 62.7418 43.875 60.875V55.8125H10.125V60.875C10.125 62.7418 8.61363 64.25 6.75 64.25H3.375C1.51137 64.25 0 62.7418 0 60.875V40.625C0 37.809 1.72547 35.3938 4.17762 34.3813ZM11.5066 33.875H42.4934L39.7406 26.007C39.266 24.657 37.9898 23.75 36.5555 23.75H17.4445C16.0102 23.75 14.734 24.657 14.2594 26.007L11.5066 33.875ZM10.125 40.625C8.26137 40.625 6.75 42.1332 6.75 44C6.75 45.8668 8.26137 47.375 10.125 47.375C11.9918 47.375 13.5 45.8668 13.5 44C13.5 42.1332 11.9918 40.625 10.125 40.625ZM43.875 47.375C45.7418 47.375 47.25 45.8668 47.25 44C47.25 42.1332 45.7418 40.625 43.875 40.625C42.0082 40.625 40.5 42.1332 40.5 44C40.5 45.8668 42.0082 47.375 43.875 47.375Z" fill="#B5B5B6"/>
<path d="M26.375 4.06011L28.3931 4.11465C28.6659 4.06011 28.9265 4.16919 29.1204 4.36313L30.3325 5.5752L31.5445 4.36313C31.9475 3.96011 32.596 3.96011 32.999 4.36313L34.2111 5.5752L35.4232 4.36313C35.8262 3.96011 36.4746 3.96011 36.8776 4.36313L39.3018 6.78727C39.7033 7.18877 39.7048 7.83874 39.3018 8.24175L36.8776 10.6659C36.6837 10.8598 36.4222 10.968 36.1495 10.968L26.375 10.9689C26.0266 11.6446 25.566 12.281 24.9993 12.8476C22.054 15.793 17.2784 15.793 14.3331 12.8476C11.3878 9.90229 11.3878 5.12673 14.3331 2.1814C17.2784 -0.763935 22.054 -0.763935 24.9993 2.1814C25.566 2.74804 26.0266 3.38438 26.375 4.06011ZM18.4542 6.30244C17.7845 5.63277 16.6997 5.63277 16.03 6.30244C15.3603 6.97211 15.3603 8.05691 16.03 8.72658C16.6997 9.39625 17.7845 9.39625 18.4542 8.72658C19.1238 8.05691 19.1238 6.97211 18.4542 6.30244Z" fill="#B5B5B6"/>
</g>
<defs>
<clipPath id="clip0_5_2">
<rect width="54" height="64" fill="white"/>
</clipPath>
</defs>
</svg>
