<svg xmlns="http://www.w3.org/2000/svg" viewBox="0 0 41.26 41.25"><g id="レイヤー_2" data-name="レイヤー 2"><g id="レイヤー_1-2" data-name="レイヤー 1"><path d="M20.22,0H21a11.47,11.47,0,0,1,1.16.89L39.4,18.09c.47.47,1,.94,1.42,1.43a1.61,1.61,0,0,1,0,2.25,1.63,1.63,0,0,1-2.26,0l-.43-.41V39.47a1.63,1.63,0,0,1-1.69,1.78H4.84a2,2,0,0,1-.48,0,1.65,1.65,0,0,1-1.21-1.73V21.4l-.37.35A1.62,1.62,0,0,1,.09,21.2,1.4,1.4,0,0,0,0,21v-.81a11.23,11.23,0,0,1,.9-1.16Q10,10,19.06.9A11.23,11.23,0,0,1,20.22,0ZM34.85,38v-.49q0-9.48,0-19a1,1,0,0,0-.31-.74L20.93,4.21l-.3-.29-.28.26Q13.51,11,6.66,17.89a.93.93,0,0,0-.25.62q0,9.52,0,19.06V38h6.26V27.23a1.67,1.67,0,0,1,1.88-1.89H26.71a1.67,1.67,0,0,1,1.88,1.88V38ZM15.94,38h9.37v-9.4H15.94Z"/></g></g></svg>