<?xml version="1.0" encoding="utf-8"?>
<!-- Generator: Adobe Illustrator 26.0.1, SVG Export Plug-In . SVG Version: 6.00 Build 0)  -->
<svg version="1.1" id="レイヤー_1" xmlns="http://www.w3.org/2000/svg" xmlns:xlink="http://www.w3.org/1999/xlink" x="0px"
	 y="0px" viewBox="0 0 54.4 47.4" style="enable-background:new 0 0 54.4 47.4;" xml:space="preserve">
<style type="text/css">
	.st0{fill:#BC0000;}
</style>
<g id="レイヤー_2_00000085229411429123307090000017799411499428307361_">
	<g id="レイヤー_1-2">
		<path class="st0" d="M0,40.5v-1.7c0.8-2.3,2.6-2.4,4.5-2.2c0-1-0.1-1.9-0.1-2.8c0-5.9,0-11.9,0-17.8c-0.1-2.6,1.9-4.9,4.5-5
			c0.2,0,0.3,0,0.5,0H29c0-2.1,0-4.2,0-6.3C29,2.1,31.2,0,33.8,0h15.9c2.6,0,4.8,2.1,4.8,4.8v14.9c0,1.2-0.5,2.4-1.4,3.3
			c-0.8,0.8-1.9,1.3-3,1.4c0,2.1,0,4.1,0,6.1s0,3.9,0,6h1.6c1.6,0,2.8,1.3,2.9,2.8c0,0,0,0,0,0c0,4.4-3.5,8-7.9,8c0,0,0,0,0,0H7.9
			c-3.5,0-6.6-2.4-7.6-5.8C0.2,41.3,0.1,40.9,0,40.5z M22.9,36.6H45c0.9,0.1,1.8-0.5,1.9-1.4c0-0.2,0-0.3,0-0.5c0-3.2,0-6.4,0-9.6
			v-0.6c-3.8,0-7.6,0-11.3,0c-0.2,0-0.4,0.1-0.6,0.2c-0.9,0.5-1.7,1.1-2.6,1.6c-1.1,0.7-2.5,0.6-3.6-0.3c-1.1-0.8-1.5-2.1-1.1-3.4
			c0.2-0.7,0.4-1.4,0.6-2.1c0.9-2,0.7-4.2,0.6-6.4H9.5c-1.4,0-2,0.6-2,2c0,5.4,0,10.8,0,16.3c0,0.8,0,1.6,0,2.4
			c-0.1,0.8,0.5,1.4,1.2,1.6c0.8,0.1,1.6,0.1,2.4,0c0-1.7,0-3.4,0-5.1c0-1,0.3-1.9,0.9-2.7c0.3-0.4,0.6-0.7,1-1.1
			c-1.7-2.2-1.4-5.3,0.8-7c1.7-1.4,4.2-1.5,6-0.2c1,0.6,1.7,1.6,2,2.7c0.5,1.6,0.2,3.2-0.8,4.5c1.4,1.1,2.1,2.8,1.9,4.5
			C22.8,33.6,22.9,35,22.9,36.6z M30.9,23.5c1-0.6,1.9-1.2,2.8-1.8c0.5-0.3,1-0.5,1.5-0.5c4.7,0,9.4,0,14.1,0
			c0.9,0.2,1.8-0.5,1.9-1.4c0-0.2,0-0.4,0-0.6V5.1c0-1.3-0.6-1.9-2-1.9H34.2c-0.9-0.2-1.8,0.5-2,1.4c0,0.2,0,0.4,0,0.5
			c0,4.4,0,8.8,0,13.1c0,0.4-0.1,0.8-0.2,1.2C31.6,20.8,31.3,22,30.9,23.5L30.9,23.5z M51.2,39.8h-48c0,0.3,0.1,0.6,0.2,0.8
			c0.6,2.2,2.6,3.7,4.9,3.6h38.4C49,44.2,51,42.2,51.2,39.8z M19.7,36.5c0-1.6,0-3.2,0-4.8c0.1-0.7-0.3-1.4-1-1.8
			c-1-0.6-2.3-0.6-3.3,0c-0.6,0.3-1,1-0.9,1.6c0,1.4,0,2.8,0,4.2v0.7L19.7,36.5z M17,22.8c-1,0-1.8,0.8-1.8,1.8s0.8,1.8,1.8,1.8
			c1,0,1.8-0.8,1.8-1.8c0,0,0,0,0,0C18.8,23.6,18,22.8,17,22.8z"/>
		<path class="st0" d="M41.7,6.8h4.1c0.9,0,1.6,0.7,1.6,1.6c0,0.9-0.7,1.6-1.6,1.6c0,0,0,0,0,0h-8.3c-0.9,0-1.6-0.7-1.6-1.6
			s0.7-1.6,1.6-1.6L41.7,6.8z"/>
		<path class="st0" d="M41.7,17.6H40c-0.9,0-1.6-0.7-1.6-1.6c0-0.9,0.7-1.6,1.6-1.6c1.2,0,2.3,0,3.4,0c0.9,0,1.6,0.7,1.6,1.6
			c0,0.9-0.7,1.6-1.6,1.6H41.7z"/>
	</g>
</g>
</svg>
