<svg xmlns="http://www.w3.org/2000/svg" viewBox="0 0 41.39 41.4"><defs><style>.cls-1{fill:#bbb;}</style></defs><g id="レイヤー_2" data-name="レイヤー 2"><g id="レイヤー_1-2" data-name="レイヤー 1"><path class="cls-1" d="M0,19.33c.11-.74.19-1.48.32-2.22A20.39,20.39,0,0,1,4.73,7.55,21,21,0,0,1,14.84.71c.4-.13.8-.25,1.2-.34C16.62.24,17.2.13,17.85,0l.77,5.17c-.58.13-1.15.22-1.7.37A15.59,15.59,0,0,0,6.07,15.62,15.51,15.51,0,0,0,18.38,36a15.15,15.15,0,0,0,12.16-3.42,14.63,14.63,0,0,0,5.14-8.28c.11-.49.18-1,.28-1.57l5.22.78c-.23,1-.38,2-.68,3-2.34,7.61-7.44,12.34-15.11,14.31a29,29,0,0,1-2.94.46l-.31.08H19.23a2,2,0,0,0-.35-.08c-.67-.09-1.36-.14-2-.28A20.43,20.43,0,0,1,6.29,35.53a20.31,20.31,0,0,1-6-11.22C.19,23.6.1,22.88,0,22.16Z"/><path class="cls-1" d="M36.2,18.38a14,14,0,0,0-2.85-7L37.5,8.28a20.12,20.12,0,0,1,3.89,9.33Z"/><path class="cls-1" d="M23,5.2,23.79,0a20.51,20.51,0,0,1,9.33,4.14L30,8A14,14,0,0,0,23,5.2Z"/></g></g></svg>