<svg xmlns="http://www.w3.org/2000/svg" viewBox="0 0 34.73 39.52"><defs><style>.cls-1{fill:#0f7bb0;}</style></defs><g id="レイヤー_2" data-name="レイヤー 2"><g id="レイヤー_1-2" data-name="レイヤー 1"><path class="cls-1" d="M32.09,12.82a1.16,1.16,0,0,0-1.68-.31l-3.76,2.81a1.17,1.17,0,0,0-.3,1.52A10.11,10.11,0,0,1,27.79,22,10.56,10.56,0,0,1,17.37,32.57,10.56,10.56,0,0,1,7,22a10.44,10.44,0,0,1,9.26-10.36v3.41a1.16,1.16,0,0,0,1.85.93l9.26-7a1.15,1.15,0,0,0,0-1.85L18.06.23a1.16,1.16,0,0,0-1.85.93V4.67a17.45,17.45,0,0,0,1.16,34.85A17.51,17.51,0,0,0,34.73,22,17.28,17.28,0,0,0,32.09,12.82Z"/></g></g></svg>