<svg xmlns="http://www.w3.org/2000/svg" viewBox="0 0 38.02 42.4"><defs><style>.cls-1{fill:#fff;}</style></defs><g id="レイヤー_2" data-name="レイヤー 2"><g id="レイヤー_1-2" data-name="レイヤー 1"><path d="M10,0h18.7c2.1,2,4.22,4,6.3,6.1,1.06,1,2,2.17,3,3.26V34.42a2.25,2.25,0,0,1-2.51,1.39c-2.25-.08-4.51,0-6.84,0v4.09c0,2.17-.34,2.52-2.51,2.52H2.65C.42,42.4,0,42,0,39.81V9.1C0,6.89.39,6.51,2.64,6.5H9.25a28.69,28.69,0,0,1,0-3.38A28.59,28.59,0,0,1,10,0ZM3.06,9.56V39.33H25.57V17.48a2.93,2.93,0,0,0-.44-.1l-5.17,0c-2.59,0-2.7-.11-2.7-2.77v-5Zm31.71,1.32c-2.14,0-4.19,0-6.24,0-1.53,0-2.24-.64-2.18-2.22.07-1.86,0-3.73,0-5.56h-14V6.5c1.87,0,3.64-.12,5.39,0A5,5,0,0,1,20.37,7.6c2.45,2.1,4.74,4.39,7.15,6.53a3.28,3.28,0,0,1,1.17,2.77c-.05,4.23,0,8.46,0,12.69v3.18h6.1Zm-2.26-3L29.47,5V7.85ZM20.3,14.28h3l-3-2.73Z"/><path class="cls-1" d="M38,9.36c-1-1.09-2-2.22-3-3.26C32.9,4,30.78,2,28.68,0H38Z"/><path d="M14.33,26.07c2.17,0,4.34,0,6.51,0,1,0,1.8.33,1.79,1.47S21.8,29,20.81,29H8c-1.09,0-1.94-.43-1.9-1.6S7,26,8,26.06C10.1,26.09,12.22,26.07,14.33,26.07Z"/><path d="M14.47,31.68H20.8c1,0,1.83.27,1.83,1.44s-.83,1.5-1.8,1.51c-4.28,0-8.56,0-12.83,0-1.06,0-2-.38-1.93-1.57S7,31.67,8,31.68C10.14,31.69,12.3,31.68,14.47,31.68Z"/><path d="M11.82,23.37a26.07,26.07,0,0,1-4.15-.07c-.61-.1-1.09-.95-1.63-1.46.52-.48,1-1.33,1.58-1.36a85.86,85.86,0,0,1,8.64,0c.57,0,1.09,1,1.64,1.48-.59.47-1.13,1.25-1.77,1.34A29.47,29.47,0,0,1,11.82,23.37Z"/></g></g></svg>