<svg xmlns="http://www.w3.org/2000/svg" viewBox="0 0 54.42 47.41"><g id="レイヤー_2" data-name="レイヤー 2"><g id="レイヤー_1-2" data-name="レイヤー 1"><path d="M0,40.5V38.8c.76-2.27,2.6-2.4,4.47-2.21,0-1-.1-1.88-.11-2.78,0-5.93,0-11.86,0-17.8a4.75,4.75,0,0,1,4.94-5H29c0-2.15,0-4.22,0-6.29A4.76,4.76,0,0,1,33.77,0H49.66a4.76,4.76,0,0,1,4.76,4.76V19.7A4.68,4.68,0,0,1,53,23a5,5,0,0,1-3,1.42c0,2.07,0,4.1,0,6.14s0,3.95-.05,6h1.56a2.84,2.84,0,0,1,2.85,2.87,7.94,7.94,0,0,1-7.91,8H7.93A8,8,0,0,1,.31,41.66C.2,41.27.1,40.89,0,40.5Zm22.85-3.93H45a1.69,1.69,0,0,0,1.91-1.93c0-3.21,0-6.41,0-9.62v-.57c-3.82,0-7.56,0-11.3,0a1.21,1.21,0,0,0-.58.21c-.87.53-1.73,1.1-2.62,1.61A3.11,3.11,0,0,1,28.85,26a3.05,3.05,0,0,1-1.12-3.36,14.53,14.53,0,0,1,.62-2.07c.85-2.05.68-4.18.65-6.36H9.52c-1.37,0-2,.6-2,2,0,5.42,0,10.84,0,16.26,0,.81,0,1.63,0,2.44a1.49,1.49,0,0,0,1.24,1.57,18.68,18.68,0,0,0,2.37,0c0-1.71,0-3.41,0-5.11a4.27,4.27,0,0,1,.89-2.67c.29-.39.64-.73,1-1.1a5,5,0,0,1,6.78-7.21,4.92,4.92,0,0,1,2,2.73A5.07,5.07,0,0,1,21,27.66a5,5,0,0,1,1.9,4.48C22.8,33.59,22.85,35,22.85,36.57Zm8-13.09c1-.64,1.94-1.2,2.84-1.78a2.67,2.67,0,0,1,1.54-.45c4.69,0,9.38,0,14.08,0a1.69,1.69,0,0,0,1.94-2V5.13c0-1.33-.61-1.94-1.95-1.94H34.15A1.7,1.7,0,0,0,32.2,5.14c0,4.37,0,8.75,0,13.12A4.34,4.34,0,0,1,32,19.45C31.65,20.75,31.26,22.05,30.83,23.48ZM51.17,39.77h-48c0,.31.08.58.15.85a4.8,4.8,0,0,0,4.9,3.6H46.58A4.72,4.72,0,0,0,51.17,39.77Zm-31.5-3.22c0-1.64,0-3.23,0-4.82a1.79,1.79,0,0,0-1-1.76,3.35,3.35,0,0,0-3.34.05,1.72,1.72,0,0,0-.95,1.65c0,1.39,0,2.79,0,4.19v.69ZM17,22.75a1.81,1.81,0,1,0,1.79,1.81A1.85,1.85,0,0,0,17,22.75Z"/><path d="M41.72,6.81h4.09a1.59,1.59,0,1,1,0,3.18H37.52a1.59,1.59,0,1,1,0-3.18Z"/><path d="M41.7,17.64H40a1.59,1.59,0,0,1,0-3.18c1.15,0,2.3,0,3.44,0a1.59,1.59,0,0,1,0,3.18Z"/></g></g></svg>