<svg xmlns="http://www.w3.org/2000/svg" viewBox="0 0 34.45 34.46"><g id="レイヤー_2" data-name="レイヤー 2"><g id="レイヤー_1-2" data-name="レイヤー 1"><path d="M0,18.44V16c0-.08.05-.16.07-.25C.14,15.12.19,14.54.3,14a16.76,16.76,0,0,1,6-10A16.88,16.88,0,0,1,20.11.24,16.21,16.21,0,0,1,29,4.68a16.89,16.89,0,0,1,5.2,15.42,16.37,16.37,0,0,1-4.33,8.82,16.84,16.84,0,0,1-9.63,5.27c-.6.11-1.21.18-1.82.27H16c-.56-.08-1.11-.13-1.66-.23a17,17,0,0,1-8.27-3.85A16.93,16.93,0,0,1,.27,20.29C.16,19.68.09,19.06,0,18.44Zm21.37,2.91a10.89,10.89,0,0,1,6.2,7,15.18,15.18,0,1,0-25.25-14A15.13,15.13,0,0,0,6.88,28.34a10.9,10.9,0,0,1,6.21-7,7.51,7.51,0,1,1,8.28,0Zm-4.15,1.22-.92.05a3.43,3.43,0,0,0-.56.08,8.63,8.63,0,0,0-7,6.71A.44.44,0,0,0,9,30a15.26,15.26,0,0,0,16.59,0,.41.41,0,0,0,.22-.49A8.72,8.72,0,0,0,17.22,22.57Zm5.47-7.47a5.46,5.46,0,1,0-5.5,5.44A5.44,5.44,0,0,0,22.69,15.1Z"/></g></g></svg>