<svg xmlns="http://www.w3.org/2000/svg" viewBox="0 0 42.1 34.6"><g id="レイヤー_2" data-name="レイヤー 2"><g id="レイヤー_1-2" data-name="レイヤー 1"><path d="M19,18.9a9.61,9.61,0,0,0,6.21-4A9.64,9.64,0,0,0,26.6,7.61a9.3,9.3,0,0,0-4.15-6.09A9.3,9.3,0,0,0,15.17.26,9.57,9.57,0,0,0,8.52,5.7,9.55,9.55,0,0,0,9,14.27a16.75,16.75,0,0,0,1.1,1.64l.55.76.17.25-.38.17-.3.13A16.86,16.86,0,0,0,0,32.84a1.56,1.56,0,0,0,1.69,1.68H13.34a1.5,1.5,0,0,0,1.57-1.1,1.76,1.76,0,0,0-.21-1.61,1.71,1.71,0,0,0-1.44-.67H3.57l0-.29a11.65,11.65,0,0,1,1.24-4,13.75,13.75,0,0,1,11.89-7.78l.55,0A11.65,11.65,0,0,0,19,18.9Zm-1.79-3.23a5.91,5.91,0,0,1-6-6,5.9,5.9,0,0,1,6-6.05h0a5.89,5.89,0,0,1,6,6,6.09,6.09,0,0,1-1.71,4.35,6,6,0,0,1-4.31,1.75Z"/><path d="M36.67,12.28a2.67,2.67,0,0,0-.75-.42l-.21-.08,0,0h-.17a1.8,1.8,0,0,0-1.3.66l-3.68,3.67q-4.11,4.13-8.23,8.26a2.76,2.76,0,0,0-.64,1c-.71,2-1.45,4.24-2.33,6.93a1.75,1.75,0,0,0-.07.84,1.69,1.69,0,0,0,.82,1.13,2,2,0,0,0,1.62.15l3.73-1.25,2.91-1a3.43,3.43,0,0,0,1.33-.85q4.49-4.5,9-9l2.71-2.71.28-.29a1.56,1.56,0,0,0,0-2.24C40.16,15.73,38.44,14,36.67,12.28Zm1.17,6.38-.13.07a.93.93,0,0,0-.22.14L34,22.39l-6.2,6.18a2.68,2.68,0,0,1-1,.58c-.58.2-1.17.39-1.8.58l-1.24.38.31-1c.28-.87.54-1.7.81-2.52a.76.76,0,0,1,.22-.3L35.18,16.25l.12-.11.23-.22L38.1,18.5Z"/></g></g></svg>