<svg xmlns="http://www.w3.org/2000/svg" viewBox="0 0 36.16 34.96"><g id="レイヤー_2" data-name="レイヤー 2"><g id="レイヤー_1-2" data-name="レイヤー 1"><path d="M36.16,22s0,0-.06.08a1.22,1.22,0,0,1-2,.5c-1.21-.91-2.44-1.8-3.63-2.74a2.22,2.22,0,0,0-1.73-.58,6.72,6.72,0,0,1-1.1,0,1.21,1.21,0,1,1,0-2.42c.79,0,1.58,0,2.36,0a1.94,1.94,0,0,1,.94.31c.84.59,1.65,1.22,2.47,1.83l.32.22c0-.15,0-.25,0-.36V6.23a3.6,3.6,0,0,0-2.43-3.59,3.5,3.5,0,0,0-1.11-.19q-6.1,0-12.21,0A3.59,3.59,0,0,0,14.48,6c0,.86,0,1.72,0,2.58a1.21,1.21,0,1,1-2.42,0c0-1,0-2,0-3A6,6,0,0,1,17,.12,8.52,8.52,0,0,1,18.28,0c3.89,0,7.77,0,11.65,0A6.06,6.06,0,0,1,36.1,5.18a1,1,0,0,0,.06.16Z"/><path d="M0,25.71V18.12a6,6,0,0,1,6-6.06h12a6,6,0,0,1,6,5.26,4,4,0,0,1,0,.49c0,2.63,0,5.26,0,7.88a5.92,5.92,0,0,1-4.63,5.5,7.88,7.88,0,0,1-1.54.15H6.83a1.23,1.23,0,0,0-.67.23C4.75,32.6,3.37,33.66,2,34.7A1.21,1.21,0,0,1,0,34.08a1.68,1.68,0,0,1,0-.45Zm2.44,5.61c.93-.7,1.8-1.34,2.66-2a1.82,1.82,0,0,1,1.17-.39q5.88,0,11.76,0a3.6,3.6,0,0,0,3.66-3.63q0-3.61,0-7.21a3.64,3.64,0,0,0-.11-.87,3.59,3.59,0,0,0-3.71-2.74c-3.68,0-7.37,0-11,0a6.79,6.79,0,0,0-1.75.15,3.55,3.55,0,0,0-2.64,3.61V31C2.42,31.06,2.43,31.15,2.44,31.32Z"/><path d="M10.83,20.53H7.19a1.21,1.21,0,1,1,0-2.41h7.41A1.2,1.2,0,0,1,15,20.47a1.65,1.65,0,0,1-.49.06Z"/><path d="M9,25.35H7.2a1.21,1.21,0,1,1,0-2.42h3.7a1.21,1.21,0,1,1,0,2.42H9Z"/></g></g></svg>