<svg xmlns="http://www.w3.org/2000/svg" viewBox="0 0 2248.01 1797.54"><defs><style>.cls-1{fill:#fff;}.cls-2{fill:#6289c6;}.cls-3{fill:#eb613b;}.cls-4{fill:#52a5dc;}.cls-5{fill:#45bdcf;}.cls-6{fill:#5ab64b;}.cls-7{fill:#00ae97;}.cls-8{fill:#d1c246;}.cls-9{fill:#abcd03;}.cls-10{fill:#fabe00;}.cls-11{fill:#ed7987;}.cls-12{fill:#f18d00;}</style></defs><g id="レイヤー_2" data-name="レイヤー 2"><g id="レイヤー_1-2" data-name="レイヤー 1"><polygon class="cls-1" points="2145.49 189.03 1928.81 0 1840.53 0 1781.28 220.5 1650.65 281.81 1650.65 503.68 1790.15 503.68 1790.15 418.84 1831.4 418.84 1960.53 506.6 2014.33 506.6 2122.66 408.82 2244.71 408.82 2248.01 189.03 2145.49 189.03"/><polygon class="cls-1" points="442.6 1343.28 359.48 1343.28 231.75 1390.35 231.75 1548.23 314.4 1548.23 314.4 1494.1 315.61 1494.1 315.61 1560.07 280.84 1633.53 283.96 1768.58 366.88 1768.58 366.88 1727.57 386.79 1727.57 386.79 1797.54 459.45 1797.54 566.47 1562.07 567.77 1559.23 567.77 1382.36 473.96 1382.36 442.6 1343.28"/><polygon class="cls-1" points="0 1766.51 66.84 1766.51 95.79 1661.56 28.95 1661.56 0 1766.51"/><polygon class="cls-1" points="1516.97 886.3 1457.28 898.45 1449.93 962.71 1508.43 951.02 1516.97 886.3"/><path class="cls-1" d="M1864.24,858.93l34.09-246.27-24.18-20.19-11.34-76.86h-83.68v66.84H1755.6v-50h-76l-16.88,72.4h-39.3l-40,319.37-128,92.5h-98.14V970.18h-72.61l-15.39,93.06-44.45,67.43v40.07h-88l-15.69-38.6H766L464.61,1246.88v115.7H642.88V1328.8h9v33.78H803.64v57.93H779.52v-45.86H666.92L582.85,1497.3v101.77H707.63l39.82-59.72H791l39.82,46.44h56.67l88.74-101.48v-37.42l-7.9-18.06h33.24v159.83h142.07l108.88-102.32v-79.11h42.19l70,53.08h136.75l15.1-58.66.23,58.66h71.17V1401.8h114v23.37h65.48l70-156.23-10.26-106.08,29.22-63.21L1857,1034l-12.64-97.74.24-45.62ZM939.31,1362.58H979.2l-20.35,18.78v25.92Zm93,27.15h-14.61l7.54-27.15h7.07Z"/><polygon class="cls-2" points="1965.23 490.68 1836.1 402.91 1774.01 402.91 1774.01 487.76 1666.37 487.76 1666.37 291.93 1794.53 231.77 1852.53 15.94 1922.63 15.94 2139.31 204.96 2231.63 204.96 2228.82 392.88 2116.32 392.88 2007.99 490.68 1965.23 490.68"/><polygon class="cls-3" points="11.65 1757.55 35.66 1670.53 83.89 1670.53 59.89 1757.55 11.65 1757.55"/><polygon class="cls-4" points="1598.68 928.45 1613.28 811.9 1730.62 811.9 1712.71 928.45 1598.68 928.45"/><polygon class="cls-5" points="1463.66 1096.77 1463.66 1030.24 1590.52 938.59 1660.13 938.59 1604.6 1096.77 1463.66 1096.77"/><polygon class="cls-5" points="1469.39 909.54 1464.14 947.7 1496.5 939.85 1501.36 903.04 1469.39 909.54"/><polygon class="cls-4" points="1614.56 801.77 1629.16 685.22 1750.09 685.22 1732.18 801.77 1614.56 801.77"/><polygon class="cls-5" points="1415.39 1338.67 1415.39 1106.9 1513.25 1106.9 1513.25 1211.98 1477.05 1211.98 1477.05 1338.67 1415.39 1338.67"/><polygon class="cls-4" points="1615.34 1096.77 1670.87 938.59 1828.36 938.59 1840.83 1035.05 1840.21 1096.39 1839.99 1096.77 1615.34 1096.77"/><rect class="cls-6" x="1523.39" y="1106.9" width="120.76" height="105.08"/><rect class="cls-6" x="1654.28" y="1106.9" width="81.57" height="105.08"/><polygon class="cls-6" points="1717.64 1268.02 1717.64 1222.12 1745.99 1222.12 1745.99 1106.9 1835.21 1106.9 1810.63 1160.1 1820.9 1266.28 1820.12 1268.02 1717.64 1268.02"/><rect class="cls-7" x="1581.89" y="1222.12" width="125.61" height="55.54"/><rect class="cls-5" x="1487.19" y="1222.12" width="84.57" height="116.55"/><polygon class="cls-8" points="1345.94 1096.77 1350.92 1032.7 1453.52 1032.7 1453.52 1096.77 1345.94 1096.77"/><polygon class="cls-4" points="1722.97 928.45 1740.88 811.9 1854.46 811.9 1848.66 853.7 1828.46 886.05 1828.23 928.45 1722.97 928.45"/><polygon class="cls-8" points="1171.68 1236.11 1171.68 1186.68 1240.45 1186.68 1240.45 1142.49 1332.17 1142.49 1324.8 1236.11 1171.68 1236.11"/><polygon class="cls-9" points="1276.64 1338.67 1276.64 1246.24 1334.16 1246.24 1345.15 1106.9 1405.25 1106.9 1405.25 1338.67 1276.64 1338.67"/><rect class="cls-10" x="1171.68" y="1246.24" width="94.83" height="92.43"/><polygon class="cls-9" points="1532.43 1444.39 1532.43 1385.73 1503.93 1385.73 1488.83 1444.39 1402.13 1444.39 1402.13 1348.81 1571.75 1348.81 1571.75 1444.39 1532.43 1444.39"/><polygon class="cls-9" points="1369.79 1444.39 1299.81 1391.31 1276.64 1391.31 1276.64 1348.81 1391.99 1348.81 1391.99 1444.39 1369.79 1444.39"/><polygon class="cls-10" points="1171.68 1348.81 1266.51 1348.81 1266.51 1391.31 1236.33 1391.31 1236.33 1479.45 1171.68 1540.22 1171.68 1348.81"/><polygon class="cls-7" points="1581.89 1328.12 1581.89 1287.8 1707.5 1287.8 1707.5 1303.99 1695.73 1303.99 1695.73 1328.12 1581.89 1328.12"/><polygon class="cls-7" points="1717.64 1409.25 1717.64 1278.15 1815.58 1278.15 1756.87 1409.25 1717.64 1409.25"/><rect class="cls-7" x="1581.89" y="1338.26" width="113.83" height="47.62"/><polygon class="cls-10" points="1017.24 1572.74 1017.24 1472.47 1161.54 1472.47 1161.54 1549.75 1137.08 1572.74 1017.24 1572.74"/><polygon class="cls-4" points="1630.42 675.08 1637.23 620.82 1675.11 620.82 1691.99 548.43 1739.47 548.43 1739.47 598.37 1794.85 598.37 1794.85 531.53 1848.85 531.53 1859.07 600.81 1881.13 619.22 1873.4 675.08 1630.42 675.08"/><polygon class="cls-10" points="1043.02 1298.85 1027.94 1148.08 1110.12 1148.08 1125.82 1186.68 1161.54 1186.68 1161.54 1298.85 1043.02 1298.85"/><polygon class="cls-8" points="1242.48 1132.36 1283.97 1069.45 1297.86 986.11 1341.05 986.11 1341.05 1029.03 1332.98 1132.36 1242.48 1132.36"/><polygon class="cls-4" points="1742.44 801.77 1760.35 685.22 1872 685.22 1855.87 801.77 1742.44 801.77"/><rect class="cls-10" x="1106.52" y="1308.99" width="55.01" height="153.34"/><polygon class="cls-10" points="1017.24 1462.33 1017.24 1405.66 1048 1405.66 1048 1346.66 1047.73 1346.66 1044.05 1308.99 1096.38 1308.99 1096.38 1462.33 1017.24 1462.33"/><polygon class="cls-11" points="819.36 1375.5 927.36 1375.5 948.29 1423.35 819.36 1423.48 819.36 1375.5"/><polygon class="cls-11" points="819.36 1470.8 819.36 1433.6 952.71 1433.47 960.16 1450.49 960.05 1478.34 893.85 1554.02 819.36 1470.8"/><polygon class="cls-11" points="622.2 1467.76 675.1 1390.59 763.38 1390.59 763.38 1436.44 809.22 1436.44 809.22 1467.76 622.2 1467.76"/><polygon class="cls-11" points="598.56 1583.15 598.56 1502.24 615.25 1477.9 812.13 1477.9 887.14 1561.71 880 1569.87 837.89 1569.87 798.07 1523.42 738.72 1523.42 698.9 1583.15 598.56 1583.15"/><polygon class="cls-3" points="427.69 1641.03 453.31 1509.58 551.64 1520.12 551.64 1556.09 510.26 1646.8 427.69 1641.03"/><polygon class="cls-3" points="455.03 1499.59 470.16 1398.28 551.64 1398.28 551.64 1509.92 455.03 1499.59"/><polygon class="cls-3" points="298.96 1632.04 331.18 1563.95 331.31 1508.66 443.17 1508.65 417.51 1640.31 298.96 1632.04"/><polygon class="cls-3" points="247.46 1532.31 247.46 1401.46 298.33 1382.71 298.33 1478.18 298.26 1479.62 298.26 1532.31 247.46 1532.31"/><polygon class="cls-3" points="374.76 1498.53 374.76 1359.21 434.75 1359.21 460.9 1391.78 444.95 1498.54 374.76 1498.53"/><polygon class="cls-3" points="402.51 1781.62 402.51 1711.64 350.75 1711.64 350.75 1752.66 299.32 1752.66 296.76 1642.05 505.79 1656.66 448.99 1781.62 402.51 1781.62"/><polygon class="cls-3" points="331.32 1498.53 331.32 1478.18 308.48 1478.18 308.48 1378.98 362.36 1359.12 364.62 1359.17 364.62 1498.53 331.32 1498.53"/><polygon class="cls-12" points="789.81 1346.66 789.81 1236.39 921.43 1229.15 921.43 1346.66 789.81 1346.66"/><polygon class="cls-10" points="931.57 1346.66 931.57 1148.08 1017.77 1148.08 1037.55 1346.66 931.57 1346.66"/><polygon class="cls-10" points="972.14 1415.54 972.14 1387.18 996.72 1364.5 1010.89 1364.5 996.72 1415.54 972.14 1415.54"/><polygon class="cls-12" points="789.81 1148.08 921.43 1148.08 921.43 1219 789.81 1226.25 789.81 1148.08"/><polygon class="cls-12" points="667.65 1346.66 667.65 1312.88 636.61 1312.88 617.25 1245.88 779.67 1236.94 779.67 1346.66 667.65 1346.66"/><polygon class="cls-12" points="606.79 1209.71 768.97 1147.98 779.67 1148.06 779.67 1226.8 614.36 1235.89 606.79 1209.71"/><polygon class="cls-12" points="480.33 1346.66 480.33 1257.87 597.29 1213.34 626.8 1315.47 626.75 1346.66 480.33 1346.66"/></g></g></svg>